<svg xmlns="http://www.w3.org/2000/svg" xmlns:xlink="http://www.w3.org/1999/xlink">
    <defs>
        <symbol viewBox="0 0 28.3 28.3" id="square">
            <path d="M5.062 12h3.475c1.804 0 2.888-.908 2.888-2.396 0-1.102-.761-1.916-1.904-2.034v-.1c.832-.14 1.482-.93 1.482-1.816 0-1.3-.955-2.11-2.542-2.11H5.062V12zm1.313-4.875V4.658h1.78c.973 0 1.542.457 1.542 1.237 0 .802-.604 1.23-1.764 1.23H6.375zm0 3.762V8.162h1.822c1.236 0 1.887.463 1.887 1.348 0 .896-.627 1.377-1.811 1.377H6.375z"/>
            <path d="M0 4a4 4 0 0 1 4-4h8a4 4 0 0 1 4 4v8a4 4 0 0 1-4 4H4a4 4 0 0 1-4-4V4zm4-3a3 3 0 0 0-3 3v8a3 3 0 0 0 3 3h8a3 3 0 0 0 3-3V4a3 3 0 0 0-3-3H4z"/>
        </symbol>
        <symbol viewBox="0 0 28.3 28.3" id="person">
            <path d="M8 8a3 3 0 1 0 0-6 3 3 0 0 0 0 6zm2-3a2 2 0 1 1-4 0 2 2 0 0 1 4 0zm4 8c0 1-1 1-1 1H3s-1 0-1-1 1-4 6-4 6 3 6 4zm-1-.004c-.001-.246-.154-.986-.832-1.664C11.516 10.68 10.289 10 8 10c-2.29 0-3.516.68-4.168 1.332-.678.678-.83 1.418-.832 1.664h10z"/>
        </symbol>
        <symbol viewBox="0 0 28.3 28.3" id="play-circle">
            <path d="M8 15A7 7 0 1 1 8 1a7 7 0 0 1 0 14zm0 1A8 8 0 1 0 8 0a8 8 0 0 0 0 16z"/>
            <path d="M6.271 5.055a.5.5 0 0 1 .52.038l3.5 2.5a.5.5 0 0 1 0 .814l-3.5 2.5A.5.5 0 0 1 6 10.5v-5a.5.5 0 0 1 .271-.445z"/>
        </symbol>
        <symbol viewBox="0 0 28.3 28.3" id="three-dots-vertical">
            <path d="M9.5 13a1.5 1.5 0 1 1-3 0 1.5 1.5 0 0 1 3 0zm0-5a1.5 1.5 0 1 1-3 0 1.5 1.5 0 0 1 3 0zm0-5a1.5 1.5 0 1 1-3 0 1.5 1.5 0 0 1 3 0z"/>
        </symbol>
    </defs>
</svg>